<svg xmlns="http://www.w3.org/2000/svg" xmlns:xlink="http://www.w3.org/1999/xlink" preserveAspectRatio="xMidYMid meet" viewBox="0 0 50 50" width="48" height="48"><style><![CDATA[.B{fill-opacity:0}.C{stroke:#000}.D{stroke-opacity:0}.E{stroke-width:.2}]]></style><defs><path d="M0 0h50v50H0V0z" id="A"/><linearGradient id="B" gradientUnits="userSpaceOnUse" x1="0" y1="0" x2="50" y2="0"><stop offset="0%" stop-color="#ff3c61"/><stop offset="100%" stop-color="#fe7c38"/></linearGradient><path d="M8.12 23.04zm-1.16-.59zm6.01-.32a5.05 5.05 0 0 1 .49 1.47c-.55-1.36-1.48-1.91-2.24-3.11l-.11-.18a.88.88 0 0 0-.06-.1c-.03-.07-.05-.13-.07-.2-.01-.01-.02-.01-.02-.01-1.08.63-1.53 1.74-1.64 2.44-.33.02-.66.1-.96.25-.06.02-.08.09-.06.15s.09.1.15.07c.28-.12.56-.2.85-.22h.03.12c.23-.01.47.03.69.09.02.01.03.01.04.01.04.02.08.03.11.04l.08.03c.03.01.05.02.07.03.03.01.06.03.1.05.01 0 .03.01.04.02.03.02.07.03.1.05.02.01.04.02.06.04.35.21.64.52.84.87-.26-.18-.72-.36-1.17-.28 1.75.87 1.28 3.87-1.13 3.76-.22-.01-.43-.05-.64-.12a1.96 1.96 0 0 0-.14-.06c-.02-.01-.05-.03-.08-.04-.59-.31-1.08-.88-1.14-1.59 0 0 .22-.83 1.6-.83.15 0 .58-.42.58-.54 0-.04-.84-.37-1.17-.69l-.33-.32c-.04-.04-.09-.07-.13-.1a2.25 2.25 0 0 1-.01-1.18c-.5.22-.89.58-1.17.9-.19-.24-.18-1.05-.17-1.21 0-.02-.14.07-.16.08a3.07 3.07 0 0 0-.47.41c-.17.16-.32.35-.46.54-.31.44-.53.94-.65 1.47l-.07.44c-.01.04-.02.08-.02.12l-.03.28c0 .06-.01.12-.01.17v.03c0 2.67 2.17 4.84 4.84 4.84a4.85 4.85 0 0 0 4.78-4.02l.02-.19c.1-.83-.01-1.71-.31-2.44-.21-.5-.64-1.05-.97-1.22z" id="C"/><path d="M38.9 26.27h2.21l-1.05-2.94L41.37 20l3.77 10h-2.78l-.64-1.79h-3.59l.77-1.94z" id="D"/><path d="M39.7 20h-2.67l-2.76 6.46L32.31 20h-2.05l-2.11 6.46-1.48-2.94-1.35 4.14L26.69 30h2.63l1.9-5.8 1.81 5.8h2.64l4.03-10z" id="E"/><path d="M22.68 26.57a4.88 4.88 0 0 0 1.33-.17l.43-1.31 1.19-3.67a4.01 4.01 0 0 0-.31-.41c-.62-.67-1.51-1.01-2.69-1.01H18.5v10h2.53v-3.43h1.65zm.89-3.31c0 .41-.11.73-.32.97-.23.26-.65.4-1.27.4h-.95v-2.69h.96c.58 0 .98.12 1.22.36s.36.56.36.96z" id="F"/></defs><use xlink:href="#A" fill="url(#B)"/><use xlink:href="#C" fill="#fff"/><use xlink:href="#C" class="B C D"/><use xlink:href="#D" fill="#fff"/><use xlink:href="#D" class="B C D E"/><use xlink:href="#E" fill="#fff"/><use xlink:href="#E" class="B C D E"/><use xlink:href="#F" fill="#fff"/><use xlink:href="#F" class="B C D E"/></svg>
