<svg xmlns="http://www.w3.org/2000/svg" xmlns:xlink="http://www.w3.org/1999/xlink" preserveAspectRatio="xMidYMid meet" viewBox="0 0 50 50" width="48" height="48"><defs><path d="M37.5 0C44.4 0 50 5.6 50 12.5v25C50 44.4 44.4 50 37.5 50h-25C5.6 50 0 44.4 0 37.5v-25C0 5.6 5.6 0 12.5 0h25z" id="A"/><linearGradient id="B" gradientUnits="userSpaceOnUse" x1="50" y1="0" x2="0" y2="0"><stop offset="0%" stop-color="#fe7c38"/><stop offset="100%" stop-color="#ff3c61"/></linearGradient><path d="M36.16 26.22h3.49l-1.66-4.64 2.07-5.24L46 32.1h-4.38l-1.01-2.82h-5.66l1.21-3.06z" id="C"/><path d="M37.43 16.34h-4.22l-4.34 10.18-3.09-10.18h-3.24l-3.32 10.18-2.34-4.64-2.12 6.53 2.15 3.69h4.15l3-9.13 2.86 9.13h4.15l6.36-15.76z" id="D"/><path d="M10.59 26.69c.79 0 1.49-.09 2.1-.26l.67-2.07 1.88-5.78a4.34 4.34 0 0 0-.49-.64c-.96-1.07-2.37-1.6-4.23-1.6H4V32.1h4v-5.41h2.59zM12 21.48c0 .64-.17 1.15-.5 1.53-.36.41-1.03.62-2 .62H8V19.4h1.51c.91 0 1.55.19 1.92.56.38.38.57.89.57 1.52z" id="E"/></defs><use xlink:href="#A" fill="url(#B)"/><use xlink:href="#C" fill="#fff"/><use xlink:href="#C" fill-opacity="0" stroke="#000" stroke-width=".2" stroke-opacity="0"/><use xlink:href="#D" fill="#fff"/><use xlink:href="#D" fill-opacity="0" stroke="#000" stroke-width=".2" stroke-opacity="0"/><use xlink:href="#E" fill="#fff"/><use xlink:href="#E" fill-opacity="0" stroke="#000" stroke-width=".2" stroke-opacity="0"/></svg>
