<svg xmlns="http://www.w3.org/2000/svg" width="48" height="48" viewBox="0 0 12.7 12.7"><g stroke="#000"><path d="M.702.794h11.295c.096 0 .173.077.173.173v8.385c0 .096-.077.173-.173.173H.702c-.096 0-.173-.077-.173-.173V.967c0-.096.077-.173.173-.173z" fill="none" stroke-width=".794"/><path stroke-width=".34" d="M5.197 10.092h2.306v.983H5.197z"/><path stroke-width=".574" d="M3.33 11.532h6.04v.484H3.33z"/></g><path d="M8.729 5.836q.029.33-.29.605l-2.09 1.761-2.032-1.734q-.348-.303-.348-.578 0-.22.174-.413.145-.22.435-.22.29 0 .464.165l.697.578V2.698q0-.248.174-.413.203-.193.493-.165.232.028.377.165.174.165.203.413v3.302l.639-.55q.261-.193.493-.193.232.028.435.22.116.165.174.358z"/></svg>
