<svg xmlns="http://www.w3.org/2000/svg" xmlns:xlink="http://www.w3.org/1999/xlink" preserveAspectRatio="xMidYMid meet" viewBox="0 0 50 50" width="48" height="48"><defs><path d="M37.5 0C44.4 0 50 5.6 50 12.5v25C50 44.4 44.4 50 37.5 50h-25C5.6 50 0 44.4 0 37.5v-25C0 5.6 5.6 0 12.5 0h25z" id="A" /><linearGradient id="B" gradientUnits="userSpaceOnUse" x1="0" y1="0" x2="50" y2="0"><stop offset="0%" stop-color="#ff3c61"/><stop offset="100%" stop-color="#fe7c38"/></linearGradient><path d="M38.9 26.27h2.21l-1.05-2.94L41.37 20l3.77 10h-2.78l-.64-1.79h-3.59l.77-1.94z" id="C"/><path d="M39.7 20h-2.67l-2.76 6.46L32.31 20h-2.05l-2.11 6.46-1.48-2.94-1.35 4.14L26.69 30h2.63l1.9-5.8 1.81 5.8h2.64l4.03-10z" id="D"/><path d="M22.68 26.57a4.88 4.88 0 0 0 1.33-.17l.43-1.31 1.19-3.67a4.01 4.01 0 0 0-.31-.41c-.62-.67-1.51-1.01-2.69-1.01H18.5v10h2.53v-3.43h1.65zm.89-3.31c0 .41-.11.73-.32.97-.23.26-.65.4-1.27.4h-.95v-2.69h.96c.58 0 .98.12 1.22.36s.36.56.36.96z" id="E"/><path id="F" d="M12.732 26.077a.49.49 0 0 0-.487.493.49.49 0 0 0 .487.493.49.49 0 0 0 .487-.493.49.49 0 0 0-.487-.493z"/></defs><use xlink:href="#A" fill="url(#B)"/><g fill="#fff"><g stroke="#fff" stroke-width=".25"><path d="M16.474 25.56c-.615-.405-1.034-1.092-1.477-1.82l-.157-.257c.844-2.383-.301-4.298-.351-4.381l-.305-.498-1.978 2.299c-.713-.311-1.538-.464-2.494-.464s-1.781.153-2.494.464l-1.978-2.299-.305.498c-.05.083-1.195 1.998-.351 4.381l-.157.257c-.443.728-.862 1.415-1.477 1.82l-.531.35.526.358 4.441 3.287c.259.259.465.527.664.787.45.587.876 1.141 1.663 1.141s1.213-.554 1.663-1.141l.664-.787c.818-.818 4.404-3.262 4.441-3.287l.526-.358zm-2.459-5.454c.194.536.398 1.414.2 2.441-.275-.366-.59-.714-.977-1.023l-.27-.2zm-8.775.582c.049-.221.11-.417.169-.582l1.047 1.217-.27.2c-.388.309-.703.659-.978 1.025-.119-.608-.108-1.231.032-1.86zm3.157 8.719l-.411-.455c-.649-.649-2.767-2.146-3.876-2.915.64-.193 1.637-.42 2.782-.42.338 0 .606.108.819.329.666.692.714 2.298.686 3.462zm1.315 1.223c-.185 0-.335-.077-.496-.226l.013-.371.004-.099h.959l.004.099.013.371c-.161.15-.311.226-.496.226zm.457-1.547h-.914c.012-1.291-.108-2.875-.93-3.729-.377-.392-.859-.59-1.433-.59-.861 0-1.641.116-2.272.257l.534-.839c.435-.714.884-1.452 1.564-1.994.758-.605 1.738-.899 2.994-.899s2.236.294 2.994.899c.679.542 1.129 1.28 1.564 1.994l.534.839c-.631-.141-1.411-.257-2.272-.257-.574 0-1.056.199-1.433.59-.822.854-.942 2.438-.93 3.729zm1.268-.132c-.152.152-.287.306-.411.455-.028-1.164.019-2.77.686-3.462.213-.221.481-.329.819-.329a9.82 9.82 0 0 1 2.781.421l-3.875 2.915z"/><use xlink:href="#F"/><use xlink:href="#F" x="-6.041"/></g><use xlink:href="#C"/></g><use xlink:href="#C" fill-opacity="0" stroke="#000" stroke-width=".2" stroke-opacity="0"/><use xlink:href="#D" fill="#fff"/><use xlink:href="#D" fill-opacity="0" stroke="#000" stroke-width=".2" stroke-opacity="0"/><use xlink:href="#E" fill="#fff"/><use xlink:href="#E" fill-opacity="0" stroke="#000" stroke-width=".2" stroke-opacity="0"/></svg>
